:FULLY-SPECIFIED
:DEGREES
1398
root 5.10898 16.5013 -3.13483 -42.8403 -88.6706 59.0191
lowerback -7.17125 0.0642331 2.47178
upperback -4.60009 -0.189496 -0.0997143
thorax -0.734128 -0.205593 -1.50067
lowerneck -14.741 -1.11665 1.41513
upperneck 19.5175 -2.22607 0.756258
head 8.50732 -0.933478 -0.248421
rclavicle -1.80149e-015 1.07344e-014
rhumerus -37.0556 -3.47344 -81.8911
rradius 33.2211
rwrist 17.8061
rhand -24.5649 -6.85136
rfingers 7.12502
rthumb 1.93177 -36.8224
lclavicle -1.80149e-015 1.07344e-014
lhumerus -41.1202 -5.49497 88.4496
lradius 37.1476
lwrist -6.66371
lhand -35.5272 -1.878
lfingers 7.12502
lthumb -8.65354 27.9246
rfemur -29.7756 10.7414 21.8772
rtibia 25.5258
rfoot -10.9548 -19.6349
rtoes -4.84195
lfemur -34.4058 1.47321 -24.0329
ltibia 66.721
lfoot -6.85521 5.67194
ltoes -12.1529
1399
root 5.12313 16.4934 -3.15173 -40.6877 -88.5506 56.7931
lowerback -7.07771 0.12523 2.28883
upperback -4.531 -0.0917115 -0.142016
thorax -0.709338 -0.150494 -1.43527
lowerneck -14.7358 -1.16901 1.41138
upperneck 19.5386 -2.30334 0.779393
head 8.51364 -0.96764 -0.249036
rclavicle 2.98177e-016 -2.26615e-014
rhumerus -36.4568 -3.53459 -81.8008
rradius 33.1793
rwrist 18.3135
rhand -24.5694 -6.82722
rfingers 7.12502
rthumb 1.92747 -36.7983
lclavicle 2.98177e-016 -2.26615e-014
lhumerus -41.3675 -4.88136 88.2064
lradius 36.6895
lwrist -6.72505
lhand -35.5692 -2.01308
lfingers 7.12502
lthumb -8.69413 27.7879
rfemur -29.2842 10.8682 21.9617
rtibia 25.8247
rfoot -11.6764 -19.9759
rtoes -5.02407
lfemur -35.7615 1.19032 -24.0083
ltibia 67.0071
lfoot -7.86025 5.80369
ltoes -12.1575
1400
root 5.13388 16.488 -3.16453 -35.953 -88.4548 51.8975
lowerback -6.93062 0.175254 2.26543
upperback -4.44417 -0.0154047 -0.203816
thorax -0.69773 -0.109241 -1.48088
lowerneck -14.751 -1.21581 1.45101
upperneck 19.6174 -2.3916 0.823645
head 8.54312 -1.00145 -0.251652
rclavicle -6.95746e-016 9.93923e-016
rhumerus -35.9212 -3.65184 -81.7712
rradius 33.2073
rwrist 18.6119
rhand -24.6435 -6.771
rfingers 7.12502
rthumb 1.8559 -36.7427
lclavicle -6.95746e-016 9.93923e-016
lhumerus -41.6069 -4.38388 87.9142
lradius 36.1987
lwrist -6.58878
lhand -35.4928 -2.12013
lfingers 7.12502
lthumb -8.6204 27.6839
rfemur -28.6572 10.8921 22.1655
rtibia 26.0982
rfoot -12.2967 -20.2805
rtoes -5.00498
lfemur -36.8883 0.823464 -23.9042
ltibia 66.9545
lfoot -8.93214 5.95342
ltoes -12.4446
1401
root 5.14798 16.4816 -3.17767 -33.4696 -88.3421 49.3652
lowerback -6.83073 0.241811 2.20997
upperback -4.40261 0.0815679 -0.294402
thorax -0.70584 -0.0590173 -1.53702
lowerneck -14.7628 -1.26715 1.46136
upperneck 19.6906 -2.48686 0.90344
head 8.57102 -1.03701 -0.238245
rclavicle -1.98785e-016 7.95139e-015
rhumerus -35.3721 -3.7963 -81.7401
rradius 33.1669
rwrist 18.9301
rhand -24.6664 -6.65396
rfingers 7.12502
rthumb 1.8338 -36.6258
lclavicle -1.98785e-016 7.95139e-015
lhumerus -41.8764 -3.83239 87.5443
lradius 35.7875
lwrist -7.02305
lhand -35.2278 -1.74181
lfingers 7.12502
lthumb -8.36467 28.0726
rfemur -28.1772 11.0578 22.2606
rtibia 26.3143
rfoot -12.9479 -20.6315
rtoes -4.92522
lfemur -38.0956 0.39308 -23.8423
ltibia 66.6171
lfoot -9.73535 6.17043
ltoes -13.2452
1402
root 5.16008 16.4725 -3.18829 -32.8885 -88.2672 48.7081
lowerback -6.67757 0.328873 2.13825
upperback -4.39553 0.20706 -0.369504
thorax -0.777762 0.00453072 -1.56666
lowerneck -14.6703 -1.31924 1.44649
upperneck 19.7536 -2.56774 0.945542
head 8.57628 -1.07289 -0.230737
rclavicle -1.78906e-015 4.96962e-015
rhumerus -34.9469 -3.84193 -81.7438
rradius 33.2511
rwrist 18.8778
rhand -24.844 -6.83344
rfingers 7.12502
rthumb 1.66223 -36.8067
lclavicle -1.78906e-015 4.96962e-015
lhumerus -42.1933 -3.45213 87.2691
lradius 35.3288
lwrist -7.31403
lhand -35.1559 -1.64156
lfingers 7.12502
lthumb -8.29523 28.1756
rfemur -27.6153 11.2844 22.336
rtibia 26.4834
rfoot -13.5331 -21.0169
rtoes -5.01702
lfemur -39.1685 0.00600863 -23.8212
ltibia 66.0034
lfoot -10.584 6.4387
ltoes -12.7241
1403
root 5.17037 16.4674 -3.19756 -30.3385 -88.1823 46.1064
lowerback -6.56887 0.399938 2.15725
upperback -4.38284 0.305007 -0.457271
thorax -0.820226 0.0525738 -1.66222
lowerneck -14.6645 -1.37923 1.47333
upperneck 19.8441 -2.66674 0.965994
head 8.60577 -1.11529 -0.240447
rclavicle -2.38542e-015 -1.64991e-014
rhumerus -34.5234 -3.84375 -81.7867
rradius 33.3341
rwrist 18.9674
rhand -24.9479 -6.66573
rfingers 7.12502
rthumb 1.56185 -36.6398
lclavicle -2.38542e-015 -1.64991e-014
lhumerus -42.5135 -3.04138 86.9257
lradius 34.857
lwrist -7.70464
lhand -35.2192 -1.67566
lfingers 7.12502
lthumb -8.35633 28.139
rfemur -27.0547 11.4567 22.4686
rtibia 26.6472
rfoot -14.0789 -21.3615
rtoes -4.35111
lfemur -40.1591 -0.516376 -23.7149
ltibia 65.1188
lfoot -11.3622 6.79942
ltoes -12.9294
1404
root 5.17996 16.4597 -3.2063 -28.7519 -88.0512 44.4129
lowerback -6.45456 0.43713 2.10948
upperback -4.30277 0.363406 -0.532367
thorax -0.797993 0.0848198 -1.70962
lowerneck -14.772 -1.41565 1.51198
upperneck 19.9484 -2.7262 0.939244
head 8.65972 -1.14138 -0.264539
rclavicle 8.34896e-015 -2.18663e-015
rhumerus -33.982 -3.73141 -81.8762
rradius 33.4741
rwrist 18.7704
rhand -24.9664 -6.76513
rfingers 7.12502
rthumb 1.54403 -36.7393
lclavicle 8.34896e-015 -2.18663e-015
lhumerus -42.7577 -2.6751 86.6073
lradius 34.4886
lwrist -8.09384
lhand -35.1009 -1.58077
lfingers 7.12502
lthumb -8.24217 28.2385
rfemur -26.416 11.6268 22.564
rtibia 26.7804
rfoot -14.5687 -21.7414
rtoes -5.13629
lfemur -41.0064 -1.06856 -23.655
ltibia 63.9793
lfoot -12.029 7.22052
ltoes -13.1296
1405
root 5.19008 16.4486 -3.21229 -25.5941 -87.9343 41.2812
lowerback -6.43647 0.509359 2.18433
upperback -4.29092 0.457159 -0.629086
thorax -0.790546 0.129748 -1.84597
lowerneck -14.7705 -1.46803 1.5299
upperneck 19.9769 -2.8103 0.965617
head 8.66921 -1.17664 -0.268651
rclavicle -3.57812e-015 6.75868e-015
rhumerus -33.5648 -3.5745 -82.0003
rradius 33.6819
rwrist 18.3781
rhand -25.1234 -6.7789
rfingers 7.12502
rthumb 1.39237 -36.7541
lclavicle -3.57812e-015 6.75868e-015
lhumerus -43.045 -2.50932 86.3117
lradius 34.1633
lwrist -8.31517
lhand -35.1123 -1.49912
lfingers 7.12502
lthumb -8.25313 28.3197
rfemur -25.9259 11.7847 22.692
rtibia 26.9071
rfoot -15.1993 -22.1493
rtoes -5.27903
lfemur -41.9526 -1.64306 -23.5375
ltibia 62.6047
lfoot -12.5426 7.6652
ltoes -14.0967
1406
root 5.19944 16.443 -3.21803 -24.0789 -87.8085 39.8412
lowerback -6.43853 0.564219 2.17251
upperback -4.30414 0.530633 -0.70872
thorax -0.798986 0.165489 -1.9172
lowerneck -14.7737 -1.51423 1.54594
upperneck 19.9966 -2.88067 0.973264
head 8.67622 -1.20748 -0.277125
rclavicle 1.19271e-015 1.07344e-014
rhumerus -33.0928 -3.36394 -82.1096
rradius 33.8069
rwrist 18.0431
rhand -25.1164 -6.7485
rfingers 7.12502
rthumb 1.39912 -36.7237
lclavicle 1.19271e-015 1.07344e-014
lhumerus -43.3532 -2.33623 86.0701
lradius 33.9103
lwrist -8.48497
lhand -35.1225 -1.46122
lfingers 7.12502
lthumb -8.26302 28.3572
rfemur -25.4679 11.987 22.7445
rtibia 26.9541
rfoot -15.813 -22.4397
rtoes -5.15331
lfemur -42.7871 -2.28133 -23.4064
ltibia 60.9592
lfoot -12.9847 8.01419
ltoes -13.6332
1407
root 5.20729 16.4439 -3.22412 -20.4137 -87.7485 36.2242
lowerback -6.39907 0.635186 2.2732
upperback -4.32066 0.621175 -0.754498
thorax -0.832262 0.207716 -2.01614
lowerneck -14.7235 -1.57096 1.52745
upperneck 19.9558 -2.95526 0.98905
head 8.6535 -1.24288 -0.276569
rclavicle -7.95139e-016 9.0447e-015
rhumerus -32.7481 -2.94385 -82.2617
rradius 34.1668
rwrist 17.5162
rhand -25.1022 -6.89121
rfingers 7.12502
rthumb 1.41287 -36.8663
lclavicle -7.95139e-016 9.0447e-015
lhumerus -43.6613 -2.1249 85.7659
lradius 33.6159
lwrist -8.9996
lhand -35.0828 -1.46152
lfingers 7.12502
lthumb -8.22469 28.3584
rfemur -24.9318 12.265 22.9166
rtibia 26.8789
rfoot -16.3238 -22.8472
rtoes -4.9971
lfemur -43.4953 -2.8713 -23.1296
ltibia 59.0576
lfoot -13.2508 8.30705
ltoes -12.6613
1408
root 5.21738 16.436 -3.22536 -18.9738 -87.8204 35.0947
lowerback -6.60883 0.77199 2.382
upperback -4.40957 0.788597 -0.807341
thorax -0.797575 0.286083 -2.12073
lowerneck -14.6667 -1.6233 1.50492
upperneck 19.9083 -3.01755 0.984154
head 8.62697 -1.27504 -0.280687
rclavicle 3.57812e-015 -3.67752e-015
rhumerus -32.3973 -2.56651 -82.3507
rradius 34.4609
rwrist 17.0494
rhand -25.118 -6.77076
rfingers 7.12502
rthumb 1.39765 -36.7459
lclavicle 3.57812e-015 -3.67752e-015
lhumerus -44.0022 -1.92823 85.5112
lradius 33.4735
lwrist -9.23636
lhand -35.0091 -1.55216
lfingers 7.12502
lthumb -8.15352 28.2705
rfemur -24.6131 12.3084 23.0517
rtibia 26.677
rfoot -16.7485 -22.8739
rtoes -5.19054
lfemur -44.4135 -3.31561 -22.916
ltibia 56.9217
lfoot -13.3488 8.78125
ltoes -12.437
1409
root 5.22148 16.4352 -3.22953 -16.571 -87.6444 32.7325
lowerback -6.59234 0.816355 2.41819
upperback -4.42717 0.846149 -0.886992
thorax -0.820342 0.312606 -2.22007
lowerneck -14.5862 -1.67427 1.53412
upperneck 19.8446 -3.08716 0.968637
head 8.58975 -1.30832 -0.297348
rclavicle -6.36111e-015 0
rhumerus -32.1518 -2.11707 -82.5125
rradius 34.8856
rwrist 16.4889
rhand -25.2321 -6.77224
rfingers 7.12502
rthumb 1.28742 -36.7481
lclavicle -6.36111e-015 0
lhumerus -44.3633 -1.79101 85.2257
lradius 33.3797
lwrist -9.31504
lhand -34.9632 -1.73122
lfingers 7.12502
lthumb -8.10922 28.0932
rfemur -23.8411 12.4105 23.1838
rtibia 26.2931
rfoot -17.0793 -23.2327
rtoes -5.31435
lfemur -44.8608 -3.94288 -22.7294
ltibia 54.5036
lfoot -13.4332 9.17781
ltoes -12.2599
1410
root 5.22471 16.4452 -3.23367 -14.9481 -87.5297 31.1679
lowerback -6.62631 0.862293 2.42315
upperback -4.40307 0.907097 -0.92846
thorax -0.772548 0.343878 -2.26147
lowerneck -14.6404 -1.70107 1.50966
upperneck 19.815 -3.11873 0.980264
head 8.59 -1.32282 -0.293286
rclavicle -1.35174e-014 1.44119e-014
rhumerus -31.7468 -1.7124 -82.609
rradius 35.2421
rwrist 16.0652
rhand -25.1531 -6.7879
rfingers 7.12502
rthumb 1.36369 -36.7633
lclavicle -1.35174e-014 1.44119e-014
lhumerus -44.6051 -1.71538 85.0517
lradius 33.3058
lwrist -9.36
lhand -34.9468 -1.34099
lfingers 7.12502
lthumb -8.09345 28.484
rfemur -23.0239 12.604 23.2929
rtibia 25.7082
rfoot -17.5454 -23.5186
rtoes -4.83823
lfemur -45.1626 -4.53315 -22.4976
ltibia 51.8165
lfoot -13.4629 9.47385
ltoes -12.7124
1411
root 5.22886 16.4481 -3.23503 -14.1719 -87.4958 30.5371
lowerback -6.72711 0.945443 2.4163
upperback -4.40932 1.01507 -0.966607
thorax -0.716548 0.398001 -2.28923
lowerneck -14.681 -1.74912 1.47755
upperneck 19.7622 -3.17345 0.978545
head 8.5797 -1.35041 -0.294759
rclavicle -2.22639e-014 3.37934e-015
rhumerus -31.4586 -1.15396 -82.6848
rradius 35.6927
rwrist 15.6985
rhand -25.1752 -6.71781
rfingers 7.12502
rthumb 1.34237 -36.6933
lclavicle -2.22639e-014 3.37934e-015
lhumerus -44.8548 -1.57973 84.8436
lradius 33.2862
lwrist -9.40273
lhand -34.8696 -1.21773
lfingers 7.12502
lthumb -8.01893 28.6101
rfemur -22.2227 12.6683 23.4134
rtibia 25.0192
rfoot -17.7886 -23.6427
rtoes -5.34201
lfemur -45.4572 -5.03905 -22.2834
ltibia 48.8797
lfoot -13.207 9.76752
ltoes -12.9889
